<?xml version="1.0" encoding="UTF-8" standalone="no"?>
<svg
   xmlns:dc="http://purl.org/dc/elements/1.1/"
   xmlns:cc="http://creativecommons.org/ns#"
   xmlns:rdf="http://www.w3.org/1999/02/22-rdf-syntax-ns#"
   xmlns:svg="http://www.w3.org/2000/svg"
   xmlns="http://www.w3.org/2000/svg"
   xmlns:xlink="http://www.w3.org/1999/xlink"
   id="svg8"
   version="1.1"
   viewBox="0 0 135.46666 135.46667"
   height="512"
   width="512">
  <defs
     id="defs2">
    <linearGradient
       id="linearGradient4608">
      <stop
         style="stop-color:#969696;stop-opacity:1"
         offset="0"
         id="stop4604" />
      <stop
         style="stop-color:#ffffff;stop-opacity:1"
         offset="1"
         id="stop4606" />
    </linearGradient>
    <linearGradient
       id="linearGradient3292">
      <stop
         style="stop-color:#0ea5e9;stop-opacity:1"
         offset="0"
         id="stop3288" />
      <stop
         style="stop-color:#bae6fd;stop-opacity:1"
         offset="1"
         id="stop3290" />
    </linearGradient>
    <linearGradient
       id="linearGradient908">
      <stop
         style="stop-color:#67e8f9;stop-opacity:0"
         offset="0"
         id="stop904" />
      <stop
         style="stop-color:#22d3ee;stop-opacity:1"
         offset="1"
         id="stop906" />
    </linearGradient>
    <linearGradient
       id="linearGradient896">
      <stop
         id="stop892"
         offset="0"
         style="stop-color:#164e63;stop-opacity:1" />
      <stop
         id="stop894"
         offset="1"
         style="stop-color:#06b6d4;stop-opacity:1" />
    </linearGradient>
    <linearGradient
       id="linearGradient888">
      <stop
         id="stop884"
         offset="0"
         style="stop-color:#e2e8f0;stop-opacity:1" />
      <stop
         id="stop886"
         offset="1"
         style="stop-color:#f1f5f9;stop-opacity:1" />
    </linearGradient>
    <linearGradient
       gradientTransform="matrix(0.98437496,0,0,0.98437496,-259.39089,3.5823133)"
       gradientUnits="userSpaceOnUse"
       y2="161.53333"
       x2="333.90417"
       y1="296.73541"
       x1="334.96252"
       id="linearGradient890"
       xlink:href="#linearGradient888" />
    <linearGradient
       gradientUnits="userSpaceOnUse"
       y2="-3.0322075"
       x2="5.2625961"
       y1="29.228434"
       x1="12.026104"
       id="linearGradient898"
       xlink:href="#linearGradient908" />
    <linearGradient
       y2="-2.6866193"
       x2="2.4002113"
       y1="29.327173"
       x1="21.057423"
       gradientUnits="userSpaceOnUse"
       id="linearGradient902"
       xlink:href="#linearGradient896" />
    <linearGradient
       gradientTransform="matrix(14.499741,0,0,14.49438,1082.0032,82.067453)"
       y2="-2.6866193"
       x2="2.4002113"
       y1="29.327173"
       x1="21.057423"
       gradientUnits="userSpaceOnUse"
       id="linearGradient916"
       xlink:href="#linearGradient896" />
    <linearGradient
       gradientUnits="userSpaceOnUse"
       y2="-3.0322075"
       x2="5.2625961"
       y1="29.228434"
       x1="12.026104"
       id="linearGradient898-3"
       xlink:href="#linearGradient908" />
    <linearGradient
       y2="-2.6866193"
       x2="2.4002113"
       y1="29.327173"
       x1="21.057423"
       gradientTransform="translate(-36.828526,-1.3759319)"
       gradientUnits="userSpaceOnUse"
       id="linearGradient3286"
       xlink:href="#linearGradient3292" />
    <filter
       height="1.2879035"
       y="-0.14395176"
       width="1.2880965"
       x="-0.14404826"
       id="filter4250"
       style="color-interpolation-filters:sRGB">
      <feGaussianBlur
         id="feGaussianBlur4252"
         stdDeviation="1.0597331" />
    </filter>
    <linearGradient
       y2="3.0983629"
       x2="3.3951089"
       y1="20.842722"
       x1="20.726252"
       gradientTransform="matrix(14.499741,0,0,14.49438,1082.0032,82.067453)"
       gradientUnits="userSpaceOnUse"
       id="linearGradient4530"
       xlink:href="#linearGradient4608" />
    <linearGradient
       gradientTransform="matrix(0.96874998,0,0,0.96874998,-254.19844,7.1645794)"
       gradientUnits="userSpaceOnUse"
       y2="161.53333"
       x2="333.90417"
       y1="296.73541"
       x1="334.96252"
       id="linearGradient890-5"
       xlink:href="#linearGradient4560" />
    <linearGradient
       id="linearGradient4560">
      <stop
         style="stop-color:#0f172a;stop-opacity:1"
         offset="0"
         id="stop4556" />
      <stop
         style="stop-color:#1e293b;stop-opacity:1"
         offset="1"
         id="stop4558" />
    </linearGradient>
    <filter
       height="1.096"
       y="-0.048"
       width="1.096"
       x="-0.048"
       id="filter4610"
       style="color-interpolation-filters:sRGB">
      <feGaussianBlur
         id="feGaussianBlur4612"
         stdDeviation="2.6246667" />
    </filter>
    <linearGradient
       y2="161.53333"
       x2="333.90417"
       y1="296.73541"
       x1="334.96252"
       gradientTransform="matrix(0.96874998,0,0,0.96874998,-254.19844,7.1645794)"
       gradientUnits="userSpaceOnUse"
       id="linearGradient4648"
       xlink:href="#linearGradient4560" />
    <filter
       height="1.048"
       y="-0.024"
       width="1.048"
       x="-0.024"
       id="filter4664"
       style="color-interpolation-filters:sRGB">
      <feGaussianBlur
         id="feGaussianBlur4666"
         stdDeviation="1.3123334" />
    </filter>
  </defs>
  <metadata
     id="metadata5">
    <rdf:RDF>
      <cc:Work
         rdf:about="">
        <dc:format>image/svg+xml</dc:format>
        <dc:type
           rdf:resource="http://purl.org/dc/dcmitype/StillImage" />
        <dc:title></dc:title>
      </cc:Work>
    </rdf:RDF>
  </metadata>
  <g
     style="display:inline"
     transform="translate(0,-161.53332)"
     id="layer1">
    <rect
       rx="67.733337"
       ry="67.733337"
       y="161.53331"
       x="0"
       height="135.46667"
       width="135.46667"
       id="rect839"
       style="opacity:1;fill:#000000;fill-opacity:1;stroke:none;stroke-width:2.11666656;stroke-linecap:butt;stroke-linejoin:miter;stroke-miterlimit:4;stroke-dasharray:none;stroke-dashoffset:725.76000977;stroke-opacity:1;paint-order:normal" />
    <g
       transform="matrix(3.7165026,0,0,3.7151284,23.135309,184.70712)"
       id="g852"
       style="fill:none;stroke:url(#linearGradient898);stroke-width:1.70891154;stroke-miterlimit:4;stroke-dasharray:none;stroke-opacity:1">
      <path
         id="path841"
         transform="matrix(0.06896675,0,0,0.06899226,-74.62224,-5.6620189)"
         d="m 1168.832,127.87109 a 12.003419,11.998981 0 0 0 -11.8379,12.17383 v 135.4043 c -7.391,2.14557 -14.102,5.42332 -18.7187,10.61523 -7.0329,7.90912 -10.2813,17.99875 -10.2813,27.91211 0,9.91336 3.2484,20.00495 10.2813,27.91406 4.6167,5.19192 11.3277,8.46967 18.7187,10.61524 v 19.44922 a 12.00785,12.00341 0 0 0 24.0157,0 v -19.44922 c 7.3911,-2.14557 14.102,-5.42332 18.7187,-10.61524 7.0329,-7.90911 10.2793,-18.0007 10.2793,-27.91406 0,-9.91336 -3.2464,-20.00299 -10.2793,-27.91211 -4.6167,-5.19191 -11.3276,-8.46966 -18.7187,-10.61523 v -135.4043 a 12.003419,11.998981 0 0 0 -12.1778,-12.17383 z m 86.9981,0 a 12.003419,11.998981 0 0 0 -11.8379,12.17383 v 19.44922 c -7.3911,2.14558 -14.102,5.42333 -18.7188,10.61524 -7.0329,7.90911 -10.2812,18.00069 -10.2812,27.91406 0,9.91336 3.2483,20.00299 10.2812,27.91211 4.6168,5.19191 11.3277,8.46966 18.7188,10.61523 v 135.4043 a 12.0078,12.00336 0 0 0 24.0156,0 v -135.4043 c 7.3911,-2.14557 14.102,-5.42332 18.7188,-10.61523 7.0329,-7.90912 10.2812,-17.99875 10.2812,-27.91211 0,-9.91337 -3.2483,-20.00495 -10.2812,-27.91406 -4.6168,-5.19191 -11.3277,-8.46966 -18.7188,-10.61524 v -19.44922 a 12.003419,11.998981 0 0 0 -12.1777,-12.17383 z m 86.998,0 a 12.003419,11.998981 0 0 0 -11.8379,12.17383 v 135.4043 c -7.391,2.14557 -14.102,5.42332 -18.7187,10.61523 -7.0329,7.90912 -10.2793,17.99875 -10.2793,27.91211 0,9.91336 3.2464,20.00495 10.2793,27.91406 4.6167,5.19192 11.3277,8.46967 18.7187,10.61524 v 19.44922 a 12.00785,12.00341 0 0 0 24.0157,0 v -19.44922 c 7.391,-2.14557 14.102,-5.42332 18.7187,-10.61524 7.0329,-7.90911 10.2813,-18.0007 10.2813,-27.91406 0,-9.91336 -3.2484,-20.00299 -10.2813,-27.91211 -4.6167,-5.19191 -11.3277,-8.46966 -18.7187,-10.61523 v -135.4043 a 12.003419,11.998981 0 0 0 -12.1778,-12.17383 z"
         style="color:#000000;font-style:normal;font-variant:normal;font-weight:normal;font-stretch:normal;font-size:medium;line-height:normal;font-family:sans-serif;font-variant-ligatures:normal;font-variant-position:normal;font-variant-caps:normal;font-variant-numeric:normal;font-variant-alternates:normal;font-feature-settings:normal;text-indent:0;text-align:start;text-decoration:none;text-decoration-line:none;text-decoration-style:solid;text-decoration-color:#000000;letter-spacing:normal;word-spacing:normal;text-transform:none;writing-mode:lr-tb;direction:ltr;text-orientation:mixed;dominant-baseline:auto;baseline-shift:baseline;text-anchor:start;white-space:normal;shape-padding:0;clip-rule:nonzero;display:inline;overflow:visible;visibility:visible;opacity:1;isolation:auto;mix-blend-mode:normal;color-interpolation:sRGB;color-interpolation-filters:linearRGB;solid-color:#000000;solid-opacity:1;vector-effect:none;fill:url(#linearGradient4530);fill-opacity:1;fill-rule:nonzero;stroke:none;stroke-width:24.77419281;stroke-linecap:round;stroke-linejoin:round;stroke-miterlimit:4;stroke-dasharray:none;stroke-dashoffset:0;stroke-opacity:1;color-rendering:auto;image-rendering:auto;shape-rendering:auto;text-rendering:auto;enable-background:accumulate" />
    </g>
  </g>
</svg>
